<svg viewBox="66 0 234 234" width="32" height="32" overflow="hidden" xmlns="http://www.w3.org/2000/svg">
  <circle cx="183" cy="117" r="117" fill="#014A8F"/>
  <path d="M2.33941 155.03L1.3128 156.697C2.93072 158.227 5.56874 159.837 8.97179 161.506C12.3949 163.185 16.6675 164.961 21.6151 166.803C31.5115 170.489 44.1678 174.466 58.2541 178.498C86.4085 186.557 120.339 194.853 149.508 201.507C154.223 203.291 163.833 205.696 179.678 208.182C181.785 208.632 183.826 209.065 185.794 209.479L185.912 209.116C186.715 209.231 187.532 209.346 188.363 209.461C221.645 214.072 240.029 209.16 249.379 200.791C258.747 192.406 258.778 180.821 255.983 172.753C255.232 165.45 251.493 157.067 246.025 148.349C240.515 139.562 233.188 130.34 225.195 121.404C209.239 103.562 190.561 86.7789 178.196 76.7473C167.56 64.6122 161.443 55.295 158.516 48.2269C155.58 41.1378 155.924 36.5052 157.852 33.5263C159.802 30.5135 163.585 28.8498 168.309 28.2163C173.004 27.5868 178.418 28.0068 183.31 28.9523L183.376 28.965L183.443 28.9688C218.499 30.9607 260.525 43.7561 277.153 49.9083L278.068 48.1474C263.744 38.2616 242.504 29.6842 221.846 22.9818C201.168 16.2726 180.979 11.413 168.694 8.98937L168.68 8.98675L168.667 8.98448C155.607 6.77431 145.742 6.53521 138.389 7.65212C131.034 8.76935 126.123 11.2555 123.078 14.5547C116.948 21.196 118.802 30.5643 122.113 36.9318L122.126 36.9566L122.14 36.9807C129.19 48.8659 141.952 64.7167 154.997 79.6654C168.054 94.629 181.443 108.744 189.789 117.174L189.828 117.137C190.137 117.471 190.45 117.809 190.766 118.15C213.344 142.526 216.622 158.158 212.349 167.738C210.202 172.552 206.081 176.03 201.147 178.417C196.214 180.804 190.536 182.064 185.42 182.474L185.414 182.474C116.422 188.456 34.6141 166.675 2.33941 155.03Z" fill="#BF2F15" stroke="white" stroke-width="2"/>
</svg>
