<svg width="1208" height="234" viewBox="0 0 1208 234" fill="none" xmlns="http://www.w3.org/2000/svg">
<path d="M417.232 81.92C416.672 80.352 415.832 78.672 414.712 76.88C413.704 74.976 412.304 73.24 410.512 71.672C408.72 70.104 406.424 68.816 403.624 67.808C400.936 66.8 397.688 66.296 393.88 66.296C389.288 66.296 385.592 67.024 382.792 68.48C379.992 69.936 377.808 71.728 376.24 73.856C374.672 75.872 373.608 78 373.048 80.24C372.6 82.368 372.376 84.16 372.376 85.616C372.376 88.976 372.992 91.832 374.224 94.184C375.456 96.424 377.024 98.328 378.928 99.896C380.944 101.464 383.072 102.808 385.312 103.928C387.664 105.048 389.904 106 392.032 106.784C396.624 108.576 400.32 110.032 403.12 111.152C406.032 112.272 408.44 113.28 410.344 114.176C412.248 115.072 413.872 115.968 415.216 116.864C416.56 117.648 417.96 118.656 419.416 119.888C421.32 121.456 422.888 123.192 424.12 125.096C425.352 126.888 426.304 128.736 426.976 130.64C427.648 132.544 428.096 134.448 428.32 136.352C428.656 138.144 428.824 139.824 428.824 141.392C428.824 145.76 428.04 150.184 426.472 154.664C424.904 159.032 422.384 163.064 418.912 166.76C415.552 170.344 411.184 173.256 405.808 175.496C400.544 177.736 394.16 178.856 386.656 178.856C381.056 178.856 375.624 178.128 370.36 176.672C365.208 175.216 360.448 172.864 356.08 169.616C357.312 165.36 358.096 161.944 358.432 159.368C358.768 156.792 358.992 154.944 359.104 153.824H361.288C363.752 158.864 367.336 163.064 372.04 166.424C376.856 169.672 382.624 171.296 389.344 171.296C393.712 171.296 397.464 170.624 400.6 169.28C403.736 167.936 406.312 166.256 408.328 164.24C410.344 162.112 411.8 159.704 412.696 157.016C413.704 154.328 414.208 151.64 414.208 148.952C414.208 145.592 413.648 142.736 412.528 140.384C411.408 137.92 409.896 135.792 407.992 134C406.088 132.208 403.848 130.696 401.272 129.464C398.808 128.12 396.176 126.888 393.376 125.768C388.448 123.752 384.528 122.128 381.616 120.896C378.704 119.552 376.352 118.488 374.56 117.704C372.768 116.808 371.312 116.024 370.192 115.352C369.184 114.568 368.12 113.672 367 112.664C364.088 110.312 361.96 107.232 360.616 103.424C359.272 99.616 358.6 95.752 358.6 91.832C358.6 86.456 359.608 81.752 361.624 77.72C363.64 73.576 366.328 70.16 369.688 67.472C373.16 64.672 377.136 62.6 381.616 61.256C386.208 59.912 390.968 59.24 395.896 59.24C399.144 59.24 402.28 59.52 405.304 60.08C408.328 60.64 411.072 61.312 413.536 62.096C416.112 62.88 418.296 63.72 420.088 64.616C421.992 65.512 423.448 66.296 424.456 66.968C424.12 67.64 423.672 68.536 423.112 69.656C422.664 70.664 422.16 71.84 421.6 73.184C421.152 74.528 420.704 75.984 420.256 77.552C419.92 79.008 419.696 80.464 419.584 81.92H417.232ZM491.096 100.904C486.616 100.904 482.864 101.688 479.84 103.256C476.816 104.712 474.296 106.616 472.28 108.968C470.376 111.32 468.864 113.896 467.744 116.696C466.736 119.496 465.952 122.24 465.392 124.928C464.944 127.504 464.664 129.856 464.552 131.984C464.552 134 464.552 135.4 464.552 136.184C464.552 147.944 466.904 156.96 471.608 163.232C476.312 169.392 482.528 172.472 490.256 172.472C494.288 172.472 497.928 171.632 501.176 169.952C504.536 168.272 507.336 165.864 509.576 162.728C511.928 159.592 513.72 155.84 514.952 151.472C516.296 146.992 516.968 141.952 516.968 136.352C516.968 133.104 516.632 129.464 515.96 125.432C515.288 121.288 514 117.424 512.096 113.84C510.304 110.144 507.728 107.064 504.368 104.6C501.008 102.136 496.584 100.904 491.096 100.904ZM490.088 94.184C498.04 94.184 504.816 95.416 510.416 97.88C516.016 100.232 520.552 103.368 524.024 107.288C527.608 111.208 530.184 115.632 531.752 120.56C533.32 125.488 534.104 130.528 534.104 135.68C534.104 142.4 532.984 148.448 530.744 153.824C528.616 159.088 525.592 163.624 521.672 167.432C517.752 171.24 513.104 174.152 507.728 176.168C502.352 178.184 496.472 179.192 490.088 179.192C485.608 179.192 480.848 178.576 475.808 177.344C470.88 176.224 466.288 174.096 462.032 170.96C457.888 167.712 454.416 163.344 451.616 157.856C448.816 152.368 447.416 145.312 447.416 136.688C447.416 130.192 448.424 124.312 450.44 119.048C452.568 113.784 455.48 109.304 459.176 105.608C462.984 101.912 467.52 99.112 472.784 97.208C478.048 95.192 483.816 94.184 490.088 94.184ZM557.679 112.16C557.679 105.776 557.623 100.288 557.511 95.696C557.511 90.992 557.511 86.904 557.511 83.432C557.511 79.96 557.455 76.992 557.343 74.528C557.343 71.952 557.287 69.544 557.175 67.304C557.175 64.952 557.119 62.656 557.007 60.416C556.895 58.176 556.727 55.656 556.503 52.856C557.959 53.08 559.359 53.304 560.703 53.528C562.159 53.752 563.671 53.864 565.239 53.864C566.807 53.864 568.263 53.752 569.607 53.528C571.063 53.304 572.575 53.08 574.143 52.856C573.919 58.904 573.695 64.28 573.471 68.984C573.359 73.576 573.247 78.168 573.135 82.76C573.135 87.24 573.079 92.056 572.967 97.208C572.967 102.36 572.967 108.576 572.967 115.856C572.967 122.464 572.967 128.288 572.967 133.328C573.079 138.256 573.191 142.96 573.303 147.44C573.415 151.92 573.527 156.512 573.639 161.216C573.863 165.808 574.087 171.016 574.311 176.84C573.079 176.504 571.791 176.224 570.447 176C569.215 175.776 567.479 175.664 565.239 175.664C563.111 175.664 561.431 175.776 560.199 176C559.079 176.224 557.903 176.504 556.671 176.84C556.895 172.584 557.063 168.832 557.175 165.584C557.399 162.336 557.511 158.584 557.511 154.328C557.623 149.96 557.679 144.528 557.679 138.032C557.679 131.536 557.679 122.912 557.679 112.16ZM637.533 167.936C642.797 167.936 646.997 166.648 650.133 164.072C653.381 161.496 655.677 158.864 657.021 156.176C658.589 153.152 659.485 150.016 659.709 146.768C659.933 143.52 660.045 140.72 660.045 138.368C660.045 135.68 659.989 132.376 659.877 128.456C659.877 124.424 659.821 120.336 659.709 116.192C659.709 112.048 659.597 108.072 659.373 104.264C659.261 100.456 659.149 97.32 659.037 94.856C660.269 95.08 661.613 95.304 663.069 95.528C664.637 95.752 666.317 95.864 668.109 95.864C670.013 95.864 671.525 95.752 672.645 95.528C673.877 95.304 675.109 95.08 676.341 94.856C676.005 99.896 675.613 106.112 675.164 113.504C674.829 120.784 674.661 128.792 674.661 137.528C674.661 143.8 674.661 148.952 674.661 152.984C674.773 157.016 674.829 160.432 674.829 163.232C674.941 166.032 675.053 168.496 675.164 170.624C675.277 172.64 675.445 174.712 675.669 176.84C674.213 176.616 672.869 176.392 671.637 176.168C670.517 175.944 669.117 175.832 667.437 175.832C665.869 175.832 664.525 175.888 663.405 176C662.397 176.224 661.109 176.504 659.541 176.84C659.653 175.608 659.709 174.544 659.709 173.648C659.821 172.752 659.877 171.8 659.877 170.792C659.989 169.672 660.045 168.384 660.045 166.928C660.157 165.36 660.269 163.344 660.381 160.88C658.253 164.688 655.901 167.768 653.325 170.12C650.861 172.36 648.341 174.096 645.765 175.328C643.301 176.56 640.893 177.344 638.541 177.68C636.301 178.128 634.397 178.352 632.829 178.352C626.221 178.352 621.013 177.288 617.205 175.16C613.397 172.92 610.485 170.288 608.469 167.264C606.565 164.128 605.333 160.936 604.773 157.688C604.213 154.328 603.933 151.472 603.933 149.12C603.933 147.888 603.989 145.592 604.101 142.232C604.213 138.872 604.269 135.288 604.269 131.48C604.381 127.672 604.493 124.088 604.605 120.728C604.717 117.256 604.773 114.792 604.773 113.336C604.773 110.2 604.717 106.784 604.605 103.088C604.493 99.392 604.325 96.648 604.101 94.856C605.333 95.192 606.565 95.472 607.797 95.696C609.141 95.808 610.765 95.864 612.669 95.864C614.461 95.864 615.973 95.808 617.205 95.696C618.549 95.472 619.837 95.192 621.069 94.856C620.509 101.016 620.117 107.344 619.893 113.84C619.669 120.224 619.557 125.712 619.557 130.304C619.557 135.232 619.613 139.992 619.725 144.584C619.949 149.064 620.621 153.04 621.741 156.512C622.861 159.984 624.653 162.784 627.117 164.912C629.581 166.928 633.053 167.936 637.533 167.936ZM708.988 104.432C707.644 104.432 706.524 104.432 705.628 104.432C704.732 104.432 703.836 104.488 702.94 104.6C702.044 104.6 701.036 104.656 699.916 104.768C698.796 104.88 697.34 104.992 695.548 105.104C695.66 104.544 695.716 103.928 695.716 103.256C695.828 102.584 695.884 101.8 695.884 100.904C695.884 100.008 695.828 99.28 695.716 98.72C695.716 98.048 695.66 97.376 695.548 96.704C696.78 96.816 698.572 96.984 700.924 97.208C702.044 97.32 703.276 97.432 704.62 97.544C705.964 97.544 707.42 97.544 708.988 97.544C708.988 94.632 708.988 91.888 708.988 89.312C708.988 86.736 708.876 83.264 708.652 78.896C709.772 78.672 711.172 78.224 712.852 77.552C714.532 76.88 716.156 76.152 717.724 75.368C719.404 74.584 720.972 73.8 722.428 73.016C723.884 72.232 725.004 71.616 725.788 71.168C725.564 74.64 725.396 77.44 725.284 79.568C725.172 81.696 725.06 83.656 724.948 85.448C724.948 87.128 724.892 88.864 724.78 90.656C724.78 92.448 724.724 94.744 724.612 97.544C727.748 97.544 730.828 97.488 733.852 97.376C736.876 97.152 739.844 96.928 742.756 96.704C742.644 97.376 742.532 98.048 742.42 98.72C742.42 99.28 742.42 100.008 742.42 100.904C742.42 101.8 742.42 102.584 742.42 103.256C742.532 103.816 742.644 104.376 742.756 104.936C740.628 104.824 737.94 104.712 734.692 104.6C731.444 104.488 728.084 104.432 724.612 104.432C724.276 112.16 724.052 119.832 723.94 127.448C723.828 135.064 723.772 142.736 723.772 150.464C723.772 157.296 724.5 162.504 725.956 166.088C727.524 169.672 730.716 171.464 735.532 171.464C736.316 171.464 737.492 171.352 739.06 171.128C740.74 170.904 742.14 170.68 743.26 170.456C743.036 171.352 742.924 172.08 742.924 172.64C742.924 173.2 743.036 174.04 743.26 175.16C741.356 176.28 738.948 177.064 736.036 177.512C733.236 178.072 730.884 178.352 728.98 178.352C724.164 178.352 720.3 177.288 717.388 175.16C714.588 173.032 712.46 170.736 711.004 168.272C710.332 167.152 709.772 165.584 709.324 163.568C708.876 161.44 708.652 157.744 708.652 152.48C708.652 151.808 708.652 151.08 708.652 150.296C708.652 149.4 708.652 148.224 708.652 146.768C708.652 145.2 708.652 143.184 708.652 140.72C708.764 138.144 708.876 134.896 708.988 130.976V104.432ZM780.389 67.976C780.389 70.552 779.493 72.736 777.701 74.528C775.909 76.208 773.725 77.048 771.149 77.048C768.685 77.048 766.557 76.208 764.765 74.528C762.973 72.736 762.077 70.552 762.077 67.976C762.077 65.4 762.973 63.216 764.765 61.424C766.557 59.632 768.685 58.736 771.149 58.736C773.725 58.736 775.909 59.632 777.701 61.424C779.493 63.216 780.389 65.4 780.389 67.976ZM763.589 134.168C763.589 124.648 763.421 116.92 763.085 110.984C762.861 105.048 762.581 99.896 762.245 95.528C763.477 95.864 764.653 96.144 765.773 96.368C767.005 96.48 768.573 96.536 770.477 96.536C772.381 96.536 774.005 96.48 775.349 96.368C776.693 96.144 777.981 95.864 779.213 95.528C779.101 97.88 778.989 100.232 778.877 102.584C778.765 104.824 778.653 107.568 778.541 110.816C778.429 114.064 778.317 117.984 778.205 122.576C778.205 127.168 778.205 132.88 778.205 139.712C778.205 141.616 778.205 143.408 778.205 145.088C778.205 146.656 778.261 148.728 778.373 151.304C778.485 153.768 778.597 157.016 778.709 161.048C778.933 164.968 779.157 170.232 779.381 176.84C778.261 176.504 777.141 176.224 776.021 176C775.013 175.888 773.389 175.832 771.149 175.832C768.797 175.832 767.061 175.888 765.941 176C764.821 176.224 763.645 176.504 762.413 176.84C762.525 173.704 762.637 170.344 762.749 166.76C762.973 163.064 763.141 159.368 763.253 155.672C763.365 151.976 763.421 148.28 763.421 144.584C763.533 140.888 763.589 137.416 763.589 134.168ZM845.963 100.904C841.483 100.904 837.731 101.688 834.707 103.256C831.683 104.712 829.163 106.616 827.147 108.968C825.243 111.32 823.731 113.896 822.611 116.696C821.603 119.496 820.819 122.24 820.259 124.928C819.811 127.504 819.531 129.856 819.419 131.984C819.419 134 819.419 135.4 819.419 136.184C819.419 147.944 821.771 156.96 826.475 163.232C831.179 169.392 837.395 172.472 845.123 172.472C849.155 172.472 852.795 171.632 856.043 169.952C859.403 168.272 862.203 165.864 864.443 162.728C866.795 159.592 868.587 155.84 869.819 151.472C871.163 146.992 871.835 141.952 871.835 136.352C871.835 133.104 871.499 129.464 870.827 125.432C870.155 121.288 868.867 117.424 866.963 113.84C865.171 110.144 862.595 107.064 859.235 104.6C855.875 102.136 851.451 100.904 845.963 100.904ZM844.955 94.184C852.907 94.184 859.683 95.416 865.283 97.88C870.883 100.232 875.419 103.368 878.891 107.288C882.475 111.208 885.051 115.632 886.619 120.56C888.187 125.488 888.971 130.528 888.971 135.68C888.971 142.4 887.851 148.448 885.611 153.824C883.483 159.088 880.459 163.624 876.539 167.432C872.619 171.24 867.971 174.152 862.595 176.168C857.219 178.184 851.339 179.192 844.955 179.192C840.475 179.192 835.715 178.576 830.675 177.344C825.747 176.224 821.155 174.096 816.899 170.96C812.755 167.712 809.283 163.344 806.483 157.856C803.683 152.368 802.283 145.312 802.283 136.688C802.283 130.192 803.291 124.312 805.307 119.048C807.435 113.784 810.347 109.304 814.043 105.608C817.851 101.912 822.387 99.112 827.651 97.208C832.915 95.192 838.683 94.184 844.955 94.184ZM912.21 130.64C912.21 125.04 912.098 119.16 911.874 113C911.762 106.84 911.594 100.792 911.37 94.856C912.938 95.08 914.338 95.304 915.57 95.528C916.802 95.752 918.202 95.864 919.77 95.864C921.338 95.864 922.738 95.752 923.97 95.528C925.202 95.304 926.546 95.08 928.002 94.856C928.002 95.528 927.946 96.648 927.834 98.216C927.722 99.672 927.61 101.24 927.498 102.92C927.498 104.6 927.442 106.224 927.33 107.792C927.218 109.248 927.162 110.256 927.162 110.816C928.282 108.8 929.682 106.84 931.362 104.936C933.042 102.92 935.114 101.128 937.578 99.56C940.042 97.992 942.842 96.76 945.978 95.864C949.114 94.856 952.698 94.352 956.73 94.352C963.562 94.352 968.938 95.416 972.858 97.544C976.778 99.672 979.634 102.304 981.426 105.44C983.33 108.464 984.506 111.656 984.954 115.016C985.402 118.376 985.626 121.232 985.626 123.584C985.626 123.92 985.57 124.872 985.458 126.44C985.458 128.008 985.458 129.968 985.458 132.32C985.458 134.672 985.402 137.248 985.29 140.048C985.178 142.736 985.122 145.368 985.122 147.944C985.122 150.52 985.066 152.872 984.954 155C984.954 157.016 984.954 158.472 984.954 159.368C984.954 160.152 984.954 161.384 984.954 163.064C984.954 164.744 984.954 166.536 984.954 168.44C985.066 170.232 985.122 171.912 985.122 173.48C985.234 175.048 985.346 176.168 985.458 176.84C984.226 176.504 982.994 176.224 981.762 176C980.642 175.888 979.018 175.832 976.89 175.832C974.65 175.832 972.914 175.888 971.682 176C970.45 176.224 969.218 176.504 967.986 176.84C968.322 172.36 968.602 167.936 968.826 163.568C969.05 159.088 969.218 155.056 969.33 151.472C969.442 147.888 969.498 144.864 969.498 142.4C969.498 139.824 969.498 138.144 969.498 137.36C969.498 133.216 969.33 129.184 968.994 125.264C968.77 121.232 967.986 117.704 966.642 114.68C965.41 111.656 963.506 109.248 960.93 107.456C958.354 105.552 954.714 104.6 950.01 104.6C940.826 104.6 934.162 108.464 930.018 116.192C929.234 117.648 928.618 119.832 928.17 122.744C927.834 125.544 927.554 128.568 927.33 131.816C927.218 135.064 927.106 138.256 926.994 141.392C926.994 144.416 926.994 146.936 926.994 148.952C926.994 155.56 927.162 161.104 927.498 165.584C927.834 169.952 928.114 173.704 928.338 176.84C927.106 176.616 925.762 176.392 924.306 176.168C922.962 175.944 921.338 175.832 919.434 175.832C917.53 175.832 915.85 175.944 914.394 176.168C913.05 176.392 911.762 176.616 910.53 176.84C910.754 174.264 910.922 171.632 911.034 168.944C911.258 166.144 911.426 162.952 911.538 159.368C911.762 155.784 911.93 151.696 912.042 147.104C912.154 142.4 912.21 136.912 912.21 130.64Z" fill="#014A8F"/>
<path d="M1056.75 176H1079.43V53.36H1056.75V176ZM1099.66 74.36H1139.98V176H1162.66V74.36H1202.98V53.36H1099.66V74.36Z" fill="#BB301F"/>
<circle cx="183" cy="117" r="117" fill="#014A8F"/>
<path d="M2.33941 155.03L1.3128 156.697C2.93072 158.227 5.56874 159.837 8.97179 161.506C12.3949 163.185 16.6675 164.961 21.6151 166.803C31.5115 170.489 44.1678 174.466 58.2541 178.498C86.4085 186.557 120.339 194.853 149.508 201.507C154.223 203.291 163.833 205.696 179.678 208.182C181.785 208.632 183.826 209.065 185.794 209.479L185.912 209.116C186.715 209.231 187.532 209.346 188.363 209.461C221.645 214.072 240.029 209.16 249.379 200.791C258.747 192.406 258.778 180.821 255.983 172.753C255.232 165.45 251.493 157.067 246.025 148.349C240.515 139.562 233.188 130.34 225.195 121.404C209.239 103.562 190.561 86.7789 178.196 76.7473C167.56 64.6122 161.443 55.295 158.516 48.2269C155.58 41.1378 155.924 36.5052 157.852 33.5263C159.802 30.5135 163.585 28.8498 168.309 28.2163C173.004 27.5868 178.418 28.0068 183.31 28.9523L183.376 28.965L183.443 28.9688C218.499 30.9607 260.525 43.7561 277.153 49.9083L278.068 48.1474C263.744 38.2616 242.504 29.6842 221.846 22.9818C201.168 16.2726 180.979 11.413 168.694 8.98937L168.68 8.98675L168.667 8.98448C155.607 6.77431 145.742 6.53521 138.389 7.65212C131.034 8.76935 126.123 11.2555 123.078 14.5547C116.948 21.196 118.802 30.5643 122.113 36.9318L122.126 36.9566L122.14 36.9807C129.19 48.8659 141.952 64.7167 154.997 79.6654C168.054 94.629 181.443 108.744 189.789 117.174L189.828 117.137C190.137 117.471 190.45 117.809 190.766 118.15C213.344 142.526 216.622 158.158 212.349 167.738C210.202 172.552 206.081 176.03 201.147 178.417C196.214 180.804 190.536 182.064 185.42 182.474L185.414 182.474C116.422 188.456 34.6141 166.675 2.33941 155.03Z" fill="#BF2F15" stroke="white" stroke-width="2"/>
</svg>
